<?xml version="1.0" standalone="no"?><!-- Generator: Gravit.io --><svg xmlns="http://www.w3.org/2000/svg" xmlns:xlink="http://www.w3.org/1999/xlink" style="isolation:isolate" viewBox="0 0 2400 2400" width="2400" height="2400"><defs><clipPath id="_clipPath_fB2NTf92TJocyNMqmKNttFXAXiD2ZNxO"><rect width="2400" height="2400"/></clipPath></defs><g clip-path="url(#_clipPath_fB2NTf92TJocyNMqmKNttFXAXiD2ZNxO)"><g><g><circle vector-effect="non-scaling-stroke" cx="1200" cy="1200" r="1200" fill="rgb(128,0,0)"/><circle vector-effect="non-scaling-stroke" cx="1200" cy="1203.3749999999993" r="1150" fill="rgb(255,255,255)"/><circle vector-effect="non-scaling-stroke" cx="1199.9999999999995" cy="1200" r="1100" fill="rgb(128,0,0)"/><g><g><path d=" M 676.893 846.902 C 709.187 780.161 674.926 727.611 596.266 727.611 L 475.968 727.611 L 355.671 727.611 C 272.884 727.611 239.277 785.819 280.671 857.515 L 340.82 961.696 L 400.968 1065.877 C 437.401 1128.98 493.835 1136.543 535.061 1088.561 C 510.802 1085.218 487.083 1067.488 468.543 1035.376 L 442.181 989.717 L 415.82 944.057 C 374.426 872.361 408.032 814.153 490.82 814.153 L 543.543 814.153 L 596.266 814.153 C 634.443 814.153 662.162 826.532 676.893 846.902 Z " fill-rule="evenodd" fill="rgb(255,255,255)"/><g><path d="M 225.016 1423.24 L 472.351 1423.24 C 492.664 1423.24 509.156 1435.444 509.156 1450.476 L 509.156 1450.476 C 509.156 1465.508 492.664 1477.712 472.351 1477.712 L 225.016 1477.712 C 204.702 1477.712 188.21 1465.508 188.21 1450.476 L 188.21 1450.476 C 188.21 1435.444 204.702 1423.24 225.016 1423.24 Z" style="stroke:none;fill:#FFFFFF;stroke-miterlimit:10;"/><path d="M 284.919 1226.305 L 509.08 1330.833 C 527.491 1339.418 537.28 1357.448 530.927 1371.072 L 530.927 1371.072 C 524.574 1384.696 504.47 1388.786 486.059 1380.202 L 261.898 1275.673 C 243.488 1267.089 233.698 1249.058 240.051 1235.434 L 240.051 1235.434 C 246.404 1221.811 266.509 1217.72 284.919 1226.305 Z" style="stroke:none;fill:#FFFFFF;stroke-miterlimit:10;"/><path d="M 261.898 1625.279 L 486.059 1520.75 C 504.47 1512.166 524.574 1516.256 530.927 1529.88 L 530.927 1529.88 C 537.28 1543.504 527.491 1561.534 509.08 1570.119 L 284.919 1674.647 C 266.509 1683.232 246.404 1679.141 240.051 1665.518 L 240.051 1665.518 C 233.698 1651.894 243.488 1633.863 261.898 1625.279 Z" style="stroke:none;fill:#FFFFFF;stroke-miterlimit:10;"/></g></g><g><path d=" M 1723.107 846.902 C 1690.813 780.161 1725.074 727.611 1803.734 727.611 L 1924.032 727.611 L 2044.329 727.611 C 2127.116 727.611 2160.723 785.819 2119.329 857.515 L 2059.18 961.696 L 1999.032 1065.877 C 1962.599 1128.98 1906.165 1136.543 1864.939 1088.561 C 1889.198 1085.218 1912.917 1067.488 1931.457 1035.376 L 1957.819 989.717 L 1984.18 944.057 C 2025.574 872.361 1991.968 814.153 1909.18 814.153 L 1856.457 814.153 L 1803.734 814.153 C 1765.557 814.153 1737.838 826.532 1723.107 846.902 Z " fill-rule="evenodd" fill="rgb(255,255,255)"/><g><path d="M 2174.984 1423.24 L 1927.649 1423.24 C 1907.336 1423.24 1890.844 1435.444 1890.844 1450.476 L 1890.844 1450.476 C 1890.844 1465.508 1907.336 1477.712 1927.649 1477.712 L 2174.984 1477.712 C 2195.298 1477.712 2211.79 1465.508 2211.79 1450.476 L 2211.79 1450.476 C 2211.79 1435.444 2195.298 1423.24 2174.984 1423.24 Z" style="stroke:none;fill:#FFFFFF;stroke-miterlimit:10;"/><path d="M 2115.081 1226.305 L 1890.92 1330.833 C 1872.509 1339.418 1862.72 1357.448 1869.073 1371.072 L 1869.073 1371.072 C 1875.426 1384.696 1895.53 1388.786 1913.941 1380.202 L 2138.102 1275.673 C 2156.512 1267.089 2166.302 1249.058 2159.949 1235.434 L 2159.949 1235.434 C 2153.596 1221.811 2133.491 1217.72 2115.081 1226.305 Z" style="stroke:none;fill:#FFFFFF;stroke-miterlimit:10;"/><path d="M 2138.102 1625.279 L 1913.941 1520.75 C 1895.53 1512.166 1875.426 1516.256 1869.073 1529.88 L 1869.073 1529.88 C 1862.72 1543.504 1872.509 1561.534 1890.92 1570.119 L 2115.081 1674.647 C 2133.491 1683.232 2153.596 1679.141 2159.949 1665.518 L 2159.949 1665.518 C 2166.302 1651.894 2156.512 1633.863 2138.102 1625.279 Z" style="stroke:none;fill:#FFFFFF;stroke-miterlimit:10;"/></g></g></g><g><path d=" M 692.613 1640.063 L 712.113 1646.313 L 712.113 1668.063 L 639.613 1668.063 L 639.613 1646.313 L 658.363 1640.063 L 658.363 1521.313 L 639.613 1513.813 L 639.613 1493.063 L 699.613 1491.813 L 767.113 1607.313 L 767.113 1521.313 L 748.863 1513.813 L 748.863 1493.063 L 820.113 1491.813 L 820.113 1513.813 L 801.363 1521.313 L 801.363 1668.063 L 759.613 1668.063 L 692.613 1554.813 L 692.613 1640.063 Z  M 959.613 1589.313 L 958.113 1608.063 L 875.113 1608.813 L 875.113 1608.813 Q 876.113 1624.313 884.238 1632.813 L 884.238 1632.813 L 884.238 1632.813 Q 892.363 1641.313 905.113 1641.313 L 905.113 1641.313 L 905.113 1641.313 Q 914.363 1641.313 924.863 1638.438 L 924.863 1638.438 L 924.863 1638.438 Q 935.363 1635.563 941.113 1632.563 L 941.113 1632.563 L 947.113 1629.563 L 957.863 1649.563 L 957.863 1649.563 Q 955.113 1651.813 950.113 1655.313 L 950.113 1655.313 L 950.113 1655.313 Q 945.113 1658.813 930.113 1664.688 L 930.113 1664.688 L 930.113 1664.688 Q 915.113 1670.563 900.863 1670.563 L 900.863 1670.563 L 900.863 1670.563 Q 869.113 1670.563 852.488 1652.938 L 852.488 1652.938 L 852.488 1652.938 Q 835.863 1635.313 835.863 1603.063 L 835.863 1603.063 L 835.863 1603.063 Q 835.863 1569.813 853.613 1550.188 L 853.613 1550.188 L 853.613 1550.188 Q 871.363 1530.563 902.613 1530.563 L 902.613 1530.563 L 902.613 1530.563 Q 930.113 1530.563 944.863 1546.313 L 944.863 1546.313 L 944.863 1546.313 Q 959.613 1562.063 959.613 1589.313 L 959.613 1589.313 Z  M 900.113 1559.813 L 900.113 1559.813 L 900.113 1559.813 Q 889.863 1559.813 883.488 1566.813 L 883.488 1566.813 L 883.488 1566.813 Q 877.113 1573.813 875.613 1585.563 L 875.613 1585.563 L 920.613 1585.563 L 920.613 1585.563 Q 920.613 1559.813 900.113 1559.813 Z  M 1030.113 1670.563 L 1030.113 1670.563 L 1030.113 1670.563 Q 1009.363 1670.563 1001.613 1657.188 L 1001.613 1657.188 L 1001.613 1657.188 Q 993.863 1643.813 993.863 1610.563 L 993.863 1610.563 L 993.863 1563.813 L 970.613 1563.813 L 970.613 1540.063 L 993.863 1536.813 L 993.863 1502.313 L 1030.613 1495.563 L 1030.613 1536.813 L 1065.613 1536.813 L 1065.613 1563.813 L 1030.613 1563.813 L 1030.613 1620.313 L 1030.613 1620.313 Q 1030.613 1632.813 1033.363 1637.813 L 1033.363 1637.813 L 1033.363 1637.813 Q 1036.113 1642.813 1043.863 1642.813 L 1043.863 1642.813 L 1043.863 1642.813 Q 1052.863 1642.813 1063.613 1637.063 L 1063.613 1637.063 L 1072.613 1655.063 L 1072.613 1655.063 Q 1050.613 1670.563 1030.113 1670.563 Z  M 1169.863 1537.313 L 1202.863 1531.813 L 1230.113 1627.563 L 1244.863 1558.063 L 1229.613 1554.313 L 1229.613 1534.313 L 1293.613 1533.063 L 1293.613 1554.313 L 1280.363 1557.313 L 1247.113 1668.063 L 1208.863 1668.063 L 1189.113 1604.313 L 1184.613 1584.813 L 1178.363 1612.063 L 1160.113 1668.063 L 1122.113 1668.063 L 1088.113 1557.813 L 1077.113 1554.313 L 1077.113 1534.313 L 1142.613 1533.063 L 1142.613 1554.313 L 1126.863 1557.313 L 1143.363 1627.563 L 1169.863 1537.313 Z  M 1371.363 1530.563 L 1371.363 1530.563 L 1371.363 1530.563 Q 1401.613 1530.563 1417.988 1548.188 L 1417.988 1548.188 L 1417.988 1548.188 Q 1434.363 1565.813 1434.363 1598.063 L 1434.363 1598.063 L 1434.363 1598.063 Q 1434.363 1631.563 1416.238 1651.063 L 1416.238 1651.063 L 1416.238 1651.063 Q 1398.113 1670.563 1367.613 1670.563 L 1367.613 1670.563 L 1367.613 1670.563 Q 1303.863 1670.563 1303.863 1601.813 L 1303.863 1601.813 L 1303.863 1601.813 Q 1303.863 1568.313 1322.113 1549.438 L 1322.113 1549.438 L 1322.113 1549.438 Q 1340.363 1530.563 1371.363 1530.563 Z  M 1370.113 1559.313 L 1370.113 1559.313 L 1370.113 1559.313 Q 1355.863 1559.313 1349.238 1568.563 L 1349.238 1568.563 L 1349.238 1568.563 Q 1342.613 1577.813 1342.613 1600.563 L 1342.613 1600.563 L 1342.613 1600.563 Q 1342.613 1622.063 1348.863 1631.938 L 1348.863 1631.938 L 1348.863 1631.938 Q 1355.113 1641.813 1368.863 1641.813 L 1368.863 1641.813 L 1368.863 1641.813 Q 1382.613 1641.813 1389.113 1632.063 L 1389.113 1632.063 L 1389.113 1632.063 Q 1395.613 1622.313 1395.613 1599.313 L 1395.613 1599.313 L 1395.613 1599.313 Q 1395.613 1579.063 1389.488 1569.188 L 1389.488 1569.188 L 1389.488 1569.188 Q 1383.363 1559.313 1370.113 1559.313 Z  M 1451.863 1555.063 L 1451.863 1535.063 L 1503.613 1533.063 L 1505.863 1550.313 L 1505.863 1550.313 Q 1507.863 1548.063 1511.363 1544.813 L 1511.363 1544.813 L 1511.363 1544.813 Q 1514.863 1541.563 1523.988 1536.063 L 1523.988 1536.063 L 1523.988 1536.063 Q 1533.113 1530.563 1540.613 1530.563 L 1540.613 1530.563 L 1540.613 1530.563 Q 1546.613 1530.563 1552.238 1531.688 L 1552.238 1531.688 L 1552.238 1531.688 Q 1557.863 1532.813 1560.613 1534.063 L 1560.613 1534.063 L 1563.113 1535.063 L 1561.113 1582.563 L 1539.363 1582.563 L 1535.613 1561.313 L 1535.613 1561.313 Q 1529.113 1561.313 1522.363 1564.813 L 1522.363 1564.813 L 1522.363 1564.813 Q 1515.613 1568.313 1512.113 1571.813 L 1512.113 1571.813 L 1508.613 1575.313 L 1508.613 1641.813 L 1532.363 1648.063 L 1532.363 1668.063 L 1451.863 1668.063 L 1451.863 1648.063 L 1471.863 1641.813 L 1471.863 1560.063 L 1451.863 1555.063 Z  M 1571.863 1496.313 L 1571.863 1476.313 L 1628.613 1474.313 L 1628.613 1583.813 L 1644.863 1583.813 L 1662.113 1557.313 L 1651.113 1553.813 L 1651.113 1533.813 L 1715.613 1532.563 L 1715.613 1553.813 L 1698.113 1557.063 L 1674.863 1590.313 L 1702.863 1642.063 L 1721.863 1648.063 L 1721.863 1668.063 L 1675.613 1668.063 L 1644.613 1606.813 L 1628.613 1606.813 L 1628.613 1641.813 L 1642.363 1648.063 L 1642.363 1668.063 L 1571.863 1668.063 L 1571.863 1648.063 L 1591.863 1641.813 L 1591.863 1501.313 L 1571.863 1496.313 Z  M 981.012 887.75 L 1006.512 887.75 L 1010.262 908.75 L 1010.262 908.75 Q 1020.262 914 1034.762 914 L 1034.762 914 L 1034.762 914 Q 1047.512 914 1056.262 908.625 L 1056.262 908.625 L 1056.262 908.625 Q 1065.012 903.25 1065.012 893.75 L 1065.012 893.75 L 1065.012 893.75 Q 1065.012 887 1058.762 882 L 1058.762 882 L 1058.762 882 Q 1052.512 877 1043.137 874.25 L 1043.137 874.25 L 1043.137 874.25 Q 1033.762 871.5 1022.762 866.875 L 1022.762 866.875 L 1022.762 866.875 Q 1011.762 862.25 1002.387 856.875 L 1002.387 856.875 L 1002.387 856.875 Q 993.012 851.5 986.762 840.875 L 986.762 840.875 L 986.762 840.875 Q 980.512 830.25 980.512 815.75 L 980.512 815.75 L 980.512 815.75 Q 980.512 790.5 998.137 776.625 L 998.137 776.625 L 998.137 776.625 Q 1015.762 762.75 1044.012 762.75 L 1044.012 762.75 L 1044.012 762.75 Q 1056.512 762.75 1070.262 765.25 L 1070.262 765.25 L 1070.262 765.25 Q 1084.012 767.75 1091.512 770.25 L 1091.512 770.25 L 1099.012 772.75 L 1097.762 818.25 L 1074.762 818.25 L 1068.512 797 L 1068.512 797 Q 1057.262 793.25 1046.512 793.25 L 1046.512 793.25 L 1046.512 793.25 Q 1033.762 793.25 1026.887 798.25 L 1026.887 798.25 L 1026.887 798.25 Q 1020.012 803.25 1020.012 811 L 1020.012 811 L 1020.012 811 Q 1020.012 817.75 1026.262 822.75 L 1026.262 822.75 L 1026.262 822.75 Q 1032.512 827.75 1041.887 830.625 L 1041.887 830.625 L 1041.887 830.625 Q 1051.262 833.5 1062.137 838 L 1062.137 838 L 1062.137 838 Q 1073.012 842.5 1082.387 847.75 L 1082.387 847.75 L 1082.387 847.75 Q 1091.762 853 1098.012 863.25 L 1098.012 863.25 L 1098.012 863.25 Q 1104.262 873.5 1104.262 887.25 L 1104.262 887.25 L 1104.262 887.25 Q 1104.262 914.5 1085.387 929.875 L 1085.387 929.875 L 1085.387 929.875 Q 1066.512 945.25 1036.762 945.25 L 1036.762 945.25 L 1036.762 945.25 Q 1024.262 945.25 1010.262 942.875 L 1010.262 942.875 L 1010.262 942.875 Q 996.262 940.5 988.512 938 L 988.512 938 L 981.012 935.75 L 981.012 887.75 Z  M 1127.012 767 L 1183.762 765.75 L 1210.012 765.75 L 1210.012 765.75 Q 1235.262 765.75 1250.137 776.625 L 1250.137 776.625 L 1250.137 776.625 Q 1265.012 787.5 1265.012 809 L 1265.012 809 L 1265.012 809 Q 1265.012 840.75 1235.012 850.25 L 1235.012 850.25 L 1235.012 850.25 Q 1270.762 860.5 1270.762 890.25 L 1270.762 890.25 L 1270.762 890.25 Q 1270.762 942 1205.762 942 L 1205.762 942 L 1127.012 942 L 1127.012 920.25 L 1127.012 920.25 Q 1133.262 918 1145.762 914 L 1145.762 914 L 1145.762 795.25 L 1127.012 787.75 L 1127.012 767 Z  M 1198.262 864 L 1198.262 864 L 1183.762 864 L 1183.762 912.75 L 1204.512 912.75 L 1204.512 912.75 Q 1217.512 912.75 1224.387 906.75 L 1224.387 906.75 L 1224.387 906.75 Q 1231.262 900.75 1231.262 890.25 L 1231.262 890.25 L 1231.262 890.25 Q 1231.262 876.75 1223.262 870.375 L 1223.262 870.375 L 1223.262 870.375 Q 1215.262 864 1198.262 864 Z  M 1205.012 795.25 L 1183.762 795.25 L 1183.762 837.75 L 1198.262 837.75 L 1198.262 837.75 Q 1226.262 837.75 1226.262 814.5 L 1226.262 814.5 L 1226.262 814.5 Q 1226.262 805 1220.387 800.125 L 1220.387 800.125 L 1220.387 800.125 Q 1214.512 795.25 1205.012 795.25 L 1205.012 795.25 Z  M 1366.262 787.75 L 1346.762 795.25 L 1346.762 874.5 L 1346.762 874.5 Q 1346.762 896.25 1354.012 905.375 L 1354.012 905.375 L 1354.012 905.375 Q 1361.262 914.5 1379.262 914.5 L 1379.262 914.5 L 1379.262 914.5 Q 1398.262 914.5 1404.762 904.375 L 1404.762 904.375 L 1404.762 904.375 Q 1411.262 894.25 1411.262 870.75 L 1411.262 870.75 L 1411.262 795.25 L 1391.762 787.75 L 1391.762 767 L 1468.762 765.75 L 1468.762 787.75 L 1450.012 795.25 L 1450.012 870.75 L 1450.012 870.75 Q 1450.012 908.25 1433.512 926.625 L 1433.512 926.625 L 1433.512 926.625 Q 1417.012 945 1378.012 945 L 1378.012 945 L 1378.012 945 Q 1341.012 945 1324.512 928 L 1324.512 928 L 1324.512 928 Q 1308.012 911 1308.012 874.5 L 1308.012 874.5 L 1308.012 795.25 L 1289.262 787.75 L 1289.262 767 L 1366.262 765.75 L 1366.262 787.75 Z  M 877.613 1145.5 L 863.813 1087.9 L 863.813 1087.9 Q 835.613 1078.3 796.613 1078.3 L 796.613 1078.3 L 796.613 1078.3 Q 697.613 1078.3 697.613 1225.3 L 697.613 1225.3 L 697.613 1225.3 Q 697.613 1363.3 799.613 1363.3 L 799.613 1363.3 L 799.613 1363.3 Q 826.013 1363.3 854.513 1352.8 L 854.513 1352.8 L 854.513 1352.8 Q 883.013 1342.3 898.613 1331.5 L 898.613 1331.5 L 913.613 1321.3 L 946.613 1375.3 L 946.613 1375.3 Q 944.213 1377.7 939.413 1382.2 L 939.413 1382.2 L 939.413 1382.2 Q 934.613 1386.7 918.713 1398.1 L 918.713 1398.1 L 918.713 1398.1 Q 902.813 1409.5 885.413 1417.9 L 885.413 1417.9 L 885.413 1417.9 Q 868.013 1426.3 841.913 1433.5 L 841.913 1433.5 L 841.913 1433.5 Q 815.813 1440.7 789.413 1440.7 L 789.413 1440.7 L 789.413 1440.7 Q 697.613 1440.7 647.513 1386.4 L 647.513 1386.4 L 647.513 1386.4 Q 597.413 1332.1 597.413 1228.3 L 597.413 1228.3 L 597.413 1228.3 Q 597.413 1123.3 652.013 1063.3 L 652.013 1063.3 L 652.013 1063.3 Q 706.613 1003.3 799.613 1003.3 L 799.613 1003.3 L 799.613 1003.3 Q 832.013 1003.3 866.813 1010.2 L 866.813 1010.2 L 866.813 1010.2 Q 901.613 1017.1 920.213 1024.3 L 920.213 1024.3 L 939.413 1031.5 L 936.413 1145.5 L 877.613 1145.5 Z  M 1147.613 1012.3 L 1243.613 1010.5 L 1372.613 1367.5 L 1414.613 1381.3 L 1414.613 1433.5 L 1223.813 1433.5 L 1223.813 1381.3 L 1268.813 1367.5 L 1254.413 1322.5 L 1121.214 1322.5 L 1106.214 1366.9 L 1153.013 1381.3 L 1153.013 1433.5 L 971.813 1433.5 L 971.813 1381.3 L 1015.613 1367.5 L 1147.613 1012.3 Z  M 1234.613 1258.3 L 1189.613 1116.1 L 1142.214 1258.3 L 1234.613 1258.3 Z  M 1697.813 1433.5 L 1505.813 1433.5 L 1505.813 1381.3 L 1555.013 1366.3 L 1555.013 1081.3 L 1498.013 1081.3 L 1483.013 1138.3 L 1427.813 1138.3 L 1427.813 1012.3 L 1775.813 1010.5 L 1775.813 1138.3 L 1720.013 1138.3 L 1705.013 1081.3 L 1648.013 1081.3 L 1648.013 1366.3 L 1697.813 1381.3 L 1697.813 1433.5 Z " fill-rule="evenodd" fill="rgb(255,255,255)"/></g></g></g></g></svg>